<svg id="Layer_1" data-name="Layer 1" xmlns="http://www.w3.org/2000/svg" viewBox="0 0 408.65 602"><defs><style>.cls-1{fill:#333;}</style></defs><path class="cls-1" d="M442.48,390.3l-16.11-16.1a26.65,26.65,0,0,0-19-7.85,25.85,25.85,0,0,0-18.65,7.85L284.41,478.86v-440c0-14.83-12.78-27.29-27.6-27.29H234c-14.82,0-26.6,12.83-26.6,27.66l.17-.77V477.69L103.86,374.2a27.17,27.17,0,0,0-38.21,0L49.54,390.3a26.93,26.93,0,0,0,0,38L226.91,605.74a27.14,27.14,0,0,0,38.16,0L442.48,428.33a27,27,0,0,0,0-38Z" transform="translate(-41.67 -11.58)"/></svg>